<?xml version="1.0" encoding="utf-8"?>
<!-- Generator: Adobe Illustrator 27.0.0, SVG Export Plug-In . SVG Version: 6.00 Build 0)  -->
<svg version="1.1" id="Layer_1" xmlns="http://www.w3.org/2000/svg" xmlns:xlink="http://www.w3.org/1999/xlink" x="0px" y="0px"
	 viewBox="0 0 512 512" style="enable-background:new 0 0 512 512;" xml:space="preserve">
<style type="text/css">
	.st0{fill:#486AAE;}
</style>
<g id="XMLID_1_">
	<polygon id="XMLID_7_" class="st0" points="0,352.43 123.32,352.43 123.32,390.02 87.92,390.02 87.92,480.13 36.57,480.13 
		36.57,390.02 0,390.02 	"/>
	<polygon id="XMLID_6_" class="st0" points="185.64,404.06 159.74,480.13 110.45,480.13 158.72,352.43 212.41,352.43 261.85,480.13 
		211.97,480.13 	"/>
	<polygon id="XMLID_5_" class="st0" points="250.15,352.43 373.32,352.43 373.32,390.02 338.07,390.02 338.07,480.13 286.72,480.13 
		286.72,390.02 250.15,390.02 	"/>
	<polygon id="XMLID_4_" class="st0" points="435.79,404.06 409.89,480.13 360.59,480.13 408.87,352.43 462.41,352.43 512,480.13 
		462.12,480.13 	"/>
	<path id="XMLID_3_" class="st0" d="M437.69,117.93c-4.53-9.07-10.68-17.7-18.14-25.89c-16.97-18.29-40.81-33.5-69.19-44.03
		c-28.53-10.53-61-16.24-94.06-16.24S190.76,37.33,162.23,48c-28.38,10.53-52.22,25.75-69.19,44.03
		c-7.61,8.19-13.6,16.82-18.29,25.89c36.86-8.92,99.77-20.63,158.28-21.94c5.71-0.15,9.51,1.76,12.14,4.97
		c3.07,3.95,2.93,17.99,2.78,24.28l-1.61,162.82c3.36,0.15,6.58,0.15,9.95,0.15c3.36,0,6.73,0,9.95-0.15l-1.61-162.82
		c-0.15-6.29-0.29-20.33,2.78-24.28c2.63-3.22,6.44-5.12,12.14-4.97C337.77,97.3,400.82,109.01,437.69,117.93"/>
	<path id="XMLID_2_" class="st0" d="M445.44,139.14c-53.98-12.14-89.97-14.48-125.37-16.38c-31.01-1.76-31.31,9.36-28.23,30.43
		c0.15,1.32,0.44,2.93,0.73,4.83c10.39,61.59,23.26,114.4,25.6,123.47c75.48-17.26,129.9-65.1,129.9-121.27
		C448.07,153.04,447.2,146.02,445.44,139.14"/>
	<path id="XMLID_8_" class="st0" d="M220.6,153.18c3.07-21.07,2.63-32.18-28.23-30.43c-35.55,1.9-71.53,4.24-125.51,16.38
		c-1.61,6.88-2.49,13.9-2.49,20.92c0,24.28,9.95,47.84,28.53,68.02c16.97,18.29,40.81,33.5,69.19,44.03
		c10.24,3.8,21.07,6.88,32.18,9.36c2.05-8.48,15.36-62.46,25.75-125.07C220.31,155.23,220.45,154.06,220.6,153.18"/>
</g>
</svg>
